<svg xmlns="http://www.w3.org/2000/svg" width="105" height="97" fill="none"><path fill="#3C3C43" fill-opacity=".6" d="M0 31.582c0 22.274 18.68 44.183 48.191 63.006 1.1.68 2.669 1.412 3.768 1.412 1.099 0 2.668-.732 3.82-1.412 29.458-18.823 48.139-40.732 48.139-63.006C103.918 13.072 91.202 0 74.249 0 64.57 0 56.72 4.601 51.96 11.66 47.302 4.654 39.349 0 29.669 0 12.714 0 0 13.072 0 31.582Zm8.424 0c0-13.909 9-23.164 21.14-23.164 9.837 0 15.488 6.118 18.837 11.347 1.412 2.091 2.302 2.666 3.558 2.666 1.256 0 2.04-.627 3.558-2.666 3.61-5.125 9.052-11.347 18.837-11.347 12.14 0 21.14 9.255 21.14 23.164 0 19.45-20.564 40.418-42.436 54.954-.524.366-.89.627-1.1.627-.209 0-.575-.261-1.046-.627C28.988 72 8.424 51.033 8.424 31.582Z"/></svg>
