<svg xmlns="http://www.w3.org/2000/svg" width="106" height="97" fill="none"><path fill="#EBEBF5" fill-opacity=".6" d="M.5 31.91c0 22.507 18.875 44.644 48.693 63.663C50.303 96.26 51.89 97 53 97c1.11 0 2.696-.74 3.86-1.427 29.765-19.02 48.64-41.156 48.64-63.662C105.5 13.208 92.653 0 75.523 0 65.742 0 57.81 4.65 53 11.782 48.295 4.702 40.258 0 30.477 0 13.347 0 .5 13.208.5 31.91Zm8.512 0c0-14.053 9.094-23.404 21.36-23.404 9.94 0 15.65 6.181 19.033 11.465 1.427 2.113 2.326 2.694 3.595 2.694 1.269 0 2.062-.634 3.595-2.694 3.648-5.178 9.147-11.465 19.033-11.465 12.266 0 21.36 9.351 21.36 23.405 0 19.653-20.778 40.839-42.878 55.526-.528.37-.898.634-1.11.634-.212 0-.582-.264-1.057-.634C29.79 72.75 9.013 51.564 9.013 31.911Z"/></svg>
